<svg xmlns="http://www.w3.org/2000/svg" xmlns:xlink="http://www.w3.org/1999/xlink" id="Layer_1" x="0px" y="0px" width="400px" height="400px" viewBox="0 0 400 400" style="enable-background:new 0 0 400 400;" xml:space="preserve">
<style type="text/css">
	.st0{fill:#FF4D9E;}
	.st1{fill:#5A37CF;}
	.st2{fill:#CBC7FF;}
</style>
<g>
	<path class="st0" d="M129.5,170.5c-5.9,0-10.6,5.6-14.1,16.8c-2.4,7.9-3.8,16-4.2,24.2l-2,54.7c0,1.3,0.2,3.2,0.5,5.7   c0.3,2.4,0.5,4.2,0.5,5.2c0,3.8-0.7,5.7-2.2,5.7c-4,0-10.1-12.4-18.3-37.3c-6.9-21.1-11.1-36.4-12.7-45.9c-0.4-3.4-0.8-6.6-1.2-9.9   c-0.7-4.7-1.4-7.8-2.2-9.3c-3-4.4-7.9-6.6-14.7-6.6c-3,0-5.9,0.7-8.9,2.2c-3.6,1.7-5.4,4-5.4,6.7c0,0.3,0.1,0.7,0.3,1.2   c0.2,0.5,0.3,0.9,0.3,1.2v24.6c0,5.5-0.7,13.7-2,24.6c-1.3,10.9-2,19.1-2,24.6c0,2.3-0.1,5.7-0.2,10.2c-0.1,4.5-0.2,7.9-0.2,10.2   c0,5.1,0.9,10.8,2.8,16.9c2.4,7.9,5.5,11.9,9.3,11.9c2.7,0,5.4-1,8.1-2.9c2.7-1.9,4-4.2,4-6.8c0-1.2-1-3.1-3.1-5.6   c-2.1-2.5-3.1-12.4-3.1-29.6c0-7.8,1.4-23.1,4.2-45.9c3.2,10.5,6.4,21,9.5,31.4c5.4,16.1,10.7,28.8,15.9,37.9   c7.3,12.4,14.6,18.5,22,18.5c5,0,9.1-3.9,12.5-11.7c2.6-6.2,3.9-12.2,4-18.2l0.6-57.9c0-7.8,1.9-17.8,5.8-30.1   c0.3-0.7,1.1-2.5,2.6-5.4c1.2-2.3,1.8-4.2,1.8-5.6c0-0.5-0.1-1.1-0.2-1.8C134,171.7,131.4,170.5,129.5,170.5z"></path>
	<path class="st0" d="M203.7,285.6c-1.6,0-5.3,1.7-11,5c-5.7,3.4-11.5,5-17.4,5c-7,0-10.8-6.4-11.3-19.1c4.2,2.3,7.2,3.4,9.1,3.4   c9.7,0,18-2.4,25-7.1c7.9-5.2,11.9-12.3,11.9-21.2c0-7.1-4.3-14-12.8-20.6c-8.5-6.6-16.5-9.9-23.9-9.9c-8.2,0-15.2,7.3-21,21.8   c-4.7,11.8-7.1,22.6-7.1,32.2c0,23.5,10.3,35.3,31,35.3c7.8,0,15.2-1.5,22.4-4.4c9.1-3.8,13.7-9,13.7-15.7   C212.3,287.2,209.4,285.6,203.7,285.6z M169.4,244c2.4-3.9,5.8-5.8,10.3-5.8c3.2,0,5.8,1.5,7.8,4.5c1.9,3,2.9,6.2,2.9,9.6   c0,8.2-4.9,12.3-14.7,12.3c-2.7,0-4.9-0.8-6.6-2.4c-1.7-1.6-2.6-3.7-2.6-6.2C166.4,251.4,167.4,247.4,169.4,244z"></path>
	<path class="st0" d="M321.6,231.2c-2.1-6.4-5-9.7-8.7-9.7c-2.4,0-4.7,1-6.9,2.9c-2.1,1.9-3.2,4.1-3.2,6.5c0,0.9,0.4,2,1.2,3   c1.3,1.3,2.1,2.1,2.2,2.4c0.7,1.2,1,5.3,1,12.3c0,8.2-1,16.6-3,25.2c-2.7,12.4-6.6,18.5-11.9,18.5c-6.2,0-9.3-8.5-9.3-25.4v-22.8   c0-0.5,0.1-1.4,0.2-2.6c0.1-1.2,0.2-2.1,0.2-2.8c0-7.4-3.3-11.1-9.9-11.1c-5.9,0-8.9,2.6-8.9,7.7c0,15.4-0.3,26.3-1,32.4   c-2,16.4-6.2,24.6-12.7,24.6c-6.2,0-9.3-14.8-9.3-44.3c0-1.7,0.4-4.3,1.2-7.8c0.8-3.4,1.2-6,1.2-7.8c0-2.4-1.4-4.5-4.1-6.2   c-2.8-1.7-5.5-2.6-8.2-2.6c-3.1,0-5.6,1.5-7.5,4.4c-0.7,5.5-1,12.7-1,21.6c0,14.1,1.7,26.4,5.2,36.9c5.1,15.3,13.2,23,24.4,23   c8.7,0,15.1-5.9,19.1-17.7c5.9,11.2,13.4,16.7,22.4,16.7c9.5,0,17.2-8.5,23-25.4c4.4-12.9,6.6-25.4,6.6-37.5   C324.2,241,323.3,236.1,321.6,231.2z"></path>
</g>
<g>
	<path class="st1" d="M176.5,173.3c-0.8,0-1.4,0.5-2,1.4c-0.4,0.7-0.6,1.5-0.6,2.4c0,0.6,0.3,1.5,0.9,2.6c0.6,1.4,1.1,2.4,1.2,3.1   c0.2,0.7,0.2,1.7,0.2,3.1c0,3.4-0.3,7.1-1,11.1c-1,5.8-2.4,8.7-4.3,8.7c-1.9,0-2.9-5.1-2.9-15.3c0-2.8,0.4-4.8,1.1-5.8   c-0.1-1.1-0.6-2-1.5-2.8s-1.9-1.1-2.9-1.1c-0.5,0-1.2,0.3-1.8,0.8c-0.7,0.5-1,1-1,1.5c0,3.4-0.6,8.3-1.9,14.6   c-1.1,5.4-2,8.1-2.8,8.1c-2.1,0-3.2-6.9-3.2-20.7c0-3,0.2-5,0.7-5.9c0.2-0.5,0.5-0.9,0.8-1.4c0.3-0.5,0.4-0.9,0.4-1.4   c0-1-1.1-1.5-3.2-1.5c-2.4,0-3.6,1.4-3.6,4.2c0,5.2,0.3,10.6,0.8,16.2c0.8,8.2,1.9,13.1,3.4,14.6c1.2,1.2,2.4,1.8,3.8,1.8   c1.9,0,3.5-1.9,4.9-5.6c0.5-1.4,1.2-4.1,2.1-8.2c0.3,3.5,0.8,6.2,1.5,8c1.2,3.2,3,4.8,5.5,4.8c2.9,0,5.3-3.4,7.2-10.2   c1.4-5.2,2.2-9.9,2.2-14c0-1.9-0.3-4.4-1-7.4C178.6,175.2,177.6,173.3,176.5,173.3z"></path>
	<path class="st1" d="M214.7,178.8c0.5-0.4,0.8-0.8,0.8-1.1c0-1.1-0.4-2.1-1.1-3c-0.7-0.9-1.6-1.3-2.8-1.3c-1.9,0-3.1,2.6-3.7,7.8   c-0.2,1.6-0.3,5-0.4,10.3c-3.8,0-7.8,0.4-12,1.3c-1.4,0.2-2.2,0.4-2.5,0.4c0-0.1,0-0.6,0-1.2c0-4.2,0.5-7.8,1.5-10.8   c0-0.1,0.3-0.7,0.6-1.5c0.3-0.7,0.4-1.2,0.4-1.6c0-0.8-0.4-1.5-1.1-2.1c-0.8-0.6-1.6-0.8-2.4-0.8c-1.4,0-2.4,0.7-3,2.1   c-0.7,1.7-1,5.8-1,12.1c0,0.6-0.1,1.4-0.2,2.5c-0.1,1.2-0.2,2.1-0.2,2.5c-0.4,0.1-0.9,0.3-1.4,0.5c-0.5,0.2-0.7,0.5-0.7,0.9   c0,0.8,0.2,1.5,0.6,2.2c0.4,0.7,0.9,1.1,1.6,1.2c0.4,7,0.9,10.8,1.4,11.3c0.8,0.8,1.8,1.2,3.1,1.2c1.4,0,2.2-0.5,2.2-1.4   c0-0.2-0.1-0.4-0.2-0.5c-0.8-0.9-1.2-2.7-1.2-5.4c0-3.4-0.1-5.4-0.2-5.9c2.5-0.5,4.9-0.9,7.4-1.4c2.9-0.5,5.4-0.8,7.5-0.9   c0.1,0.9,0.2,2.2,0.3,3.6v2.2c0,1.1,0,2.1,0.1,2.9c0.3,2.2,0.4,3.5,0.5,3.8c0.4,1.4,1.3,2.2,2.7,2.2c0.7,0,1.4-0.3,1.9-0.9   c0.5-0.6,0.8-1.3,0.8-2c0-0.3-0.1-0.9-0.4-1.8c-0.4-1.1-0.6-2.7-0.7-4.9c0-1.7-0.1-3.4-0.1-5.1c0.5-0.1,1.1-0.2,1.6-0.3   c0.7-0.2,1-0.5,1-0.9c0-0.6-0.2-1.2-0.7-1.8c-0.5-0.6-1-0.9-1.5-0.9c-0.1,0-0.3,0-0.4,0.1l-0.1-2.1c-0.1-5.2,0.4-8.7,1.3-10.5   C213.9,179.5,214.1,179.2,214.7,178.8z"></path>
	<path class="st1" d="M247.3,200c-0.3-0.1-0.9-0.3-1.8-0.5c-0.7-6.5-1.4-11.3-2.1-14.5c-1.7-7-4.1-10.5-7.3-10.5   c-3.2,0-7.2,6.6-12.1,19.9c-1.6,5.1-2.8,9-3.5,11.5c-0.6,1.8-1,2.8-1,3c0,0.7,0.4,1.4,1.2,2c0.8,0.6,1.6,0.9,2.3,0.9   c0.7,0,1.3-0.3,1.8-1c0.1-3.5,0.3-5.4,0.7-5.8c0.3-0.4,2.5-0.7,6.5-0.9c2.8-0.2,5.2-0.3,7.2-0.3c1.2,0,1.8-0.1,1.8-0.4   c0,0.3,0,0.7-0.1,1.4c0,0.6-0.1,1.1-0.1,1.4c0,1.3,0.2,2.4,0.7,3.4c0.9,0.4,1.6,0.6,2.3,0.6c0.8,0,1.6-0.2,2.2-0.8   c0.6-0.5,0.9-1.2,1-2c-0.6-1.4-1-2.5-1.2-3.4c1.6,0,2.3-0.9,2.3-2.7C248.2,200.8,247.9,200.3,247.3,200z M231.9,199.6   c-2.3,0.4-4,0.7-5.2,0.9c1-3.1,2.5-6.8,4.3-11.1c2.5-5.9,4.3-8.9,5.3-8.9c1.3,0,2.7,6.3,4.3,18.9   C236.9,199.3,234,199.3,231.9,199.6z"></path>
	<path class="st1" d="M271.4,175.3c-1.3-0.4-2.8-0.7-4.6-0.7c-2.5,0-5.7,0.2-9.6,0.7c-5.1,0.6-8,1.3-8.5,2.1   c-0.4,0.1-0.5,0.5-0.5,1.1c0,1.5,1.3,2.2,3.8,2.2c0.8,0,1.7-0.1,2.9-0.3c1.5-0.2,2.4-0.3,2.9-0.4v1.6c0,1.6-0.1,3.7-0.4,6.2   c-0.4,3.3-0.6,5.4-0.6,6.2c-0.1,2-0.2,4.8-0.2,8.4c0,3.1,0.2,5.1,0.5,6.2c0.7,2.2,2.2,3.4,4.5,3.4c0.4,0,0.9-0.2,1.6-0.5V210   c-1-1.6-1.5-4.4-1.5-8.6c0-6.2,0.3-11.7,1-16.6c0.3-1.8,0.5-3.2,0.6-4.1c0.1-0.6,0.1-1,0.2-1.1c0.1-0.1,0.4-0.1,0.9-0.1   c0.9,0,2.2,0,3.7,0c0.6,0,1.3,0.2,2.2,0.5c0.9,0.3,1.5,0.5,1.8,0.5c0.6,0,1.1-0.2,1.4-0.7c0.4-0.5,0.6-1,0.6-1.6   C274.2,176.8,273.2,175.9,271.4,175.3z"></path>
	<path class="st1" d="M280.3,175c-1,0-1.8,0.3-2.6,1c-0.7,0.6-1.1,1.4-1.1,2.2c0,0.7,0.2,1.3,0.7,1.7c0.4,0.4,1,0.8,1.6,1.2   c0.6,0.4,1,0.9,1,1.5c0.1,0.6,0,1.1-0.2,1.7c-0.3,0.9-0.7,1.6-1.4,2.2c-0.6,0.6-1.3,1.1-2,1.5c-0.4,0.5-0.5,0.9-0.2,1.3   s0.7,0.6,1.3,0.7c0.7,0,1.5-0.3,2.4-1c0.9-0.7,1.7-1.5,2.4-2.4c0.7-0.9,1.2-1.8,1.5-2.8c0.3-1,0.4-2.2,0.4-3.7   c0-1.4-0.4-2.6-1.1-3.5C282.2,175.5,281.3,175,280.3,175z"></path>
	<path class="st1" d="M305.5,199.4c-2.9-1.9-5.8-3.8-8.6-5.8c-3.1-2.5-4.7-5-4.7-7.6c0-1.8,0.6-3.5,1.8-5.1c1.2-1.5,2.7-2.3,4.6-2.3   c3.3,0,4.9,2.4,4.9,7.3c0,0.5-0.1,1.2-0.3,2.1c-0.2,0.9-0.3,1.6-0.3,2.1c0,0.7,0.3,1.3,0.9,1.9s1.2,0.9,1.9,0.9   c1.2,0,2-0.6,2.5-1.8c0.4-0.9,0.7-2,0.7-3.3c0-0.3-0.1-0.7-0.2-1.3c-0.3-2-0.5-3.5-0.7-4.5c-0.5-2.6-1.7-4.7-3.5-6.2   c-1.8-1.5-4.1-2.2-6.8-2.2c-3.1,0-5.7,1.4-7.8,4.1c-2,2.5-2.9,5.3-2.9,8.5c0,2.5,0.7,4.8,2.2,6.7c1.1,1.5,2.9,3.1,5.4,4.7   c1.9,1.2,3.8,2.5,5.7,3.7c2.7,2,4.1,3.5,4.1,4.7c0,1.3-1.5,2-4.4,2c-3.3,0-5.6-0.4-6.8-1.1c-0.1-0.1-0.9-0.8-2.3-2   c-0.8-0.8-1.7-1.2-2.7-1.2c-0.6,0-1.2,0.2-1.7,0.7c-0.5,0.5-0.7,1-0.7,1.7c0,1.7,1.9,3.3,5.7,4.6c3.1,1,5.7,1.5,8,1.5   c2.5,0,4.8-0.5,6.8-1.5c2.6-1.2,3.8-2.9,3.8-5.1C310.1,203.7,308.6,201.6,305.5,199.4z"></path>
</g>
<g>
	<path class="st2" d="M318.4,393.7l-22.5-43.5c6.4-6.8,12.2-14,17.2-21.5c1.3-2,0.8-4.7-1.2-6c-2-1.3-4.7-0.8-6,1.2   c-5.3,7.9-11.4,15.5-18.3,22.5c-1.3,1.3-1.6,3.4-0.8,5l18.8,36.3l-45.8-17.2c-1.2-0.5-2.6-0.3-3.7,0.3   c-22.9,13.4-49.1,20.5-75.7,20.5c-51.7,0-99.1-26-126.9-69.7c-1.3-2-3.9-2.6-6-1.3c-2,1.3-2.6,3.9-1.3,6   c29.4,46.1,79.5,73.7,134.1,73.7c27.4,0,54.4-7.1,78.2-20.7l54.4,20.4c0.5,0.2,1,0.3,1.5,0.3c1.2,0,2.4-0.5,3.2-1.5   C319,397.2,319.3,395.3,318.4,393.7z"></path>
	<path class="st2" d="M233,29.7c2.4,0,4.3-1.9,4.3-4.3V4.3c0-2.4-1.9-4.3-4.3-4.3c-2.4,0-4.3,1.9-4.3,4.3v21.1   C228.7,27.8,230.6,29.7,233,29.7z"></path>
	<path class="st2" d="M247.8,34.9c0.4,0.1,0.7,0.1,1.1,0.1c1.9,0,3.7-1.3,4.2-3.3l3.2-12.5c0.6-2.3-0.8-4.7-3.1-5.2   c-2.3-0.6-4.7,0.8-5.2,3.1l-3.2,12.5C244.1,32,245.5,34.3,247.8,34.9z"></path>
	<path class="st2" d="M265.1,39.4c1.1,0,2.2-0.4,3-1.3l15.3-15.3c1.7-1.7,1.7-4.4,0-6.1c-1.7-1.7-4.4-1.7-6.1,0L262,32.1   c-1.7,1.7-1.7,4.4,0,6.1C262.9,39,264,39.4,265.1,39.4z"></path>
	<path class="st2" d="M270.8,67.5c0,2.4,1.9,4.3,4.3,4.3h23.5c2.4,0,4.3-1.9,4.3-4.3s-1.9-4.3-4.3-4.3h-23.5   C272.7,63.2,270.8,65.1,270.8,67.5z"></path>
	<path class="st2" d="M60.3,150.8c1.2,0,2.4-0.5,3.2-1.5c25.2-28.5,60.2-46.3,97.7-50.1l-3.3,3.3c-11,11-11,28.8,0,39.8   c5.3,5.3,12.4,8.2,19.9,8.2c4.7,0,9.3-1.2,13.3-3.3l4.2,11.1c1.2,3.3,3.6,5.9,6.8,7.3c1.7,0.8,3.6,1.2,5.4,1.2   c1.5,0,3.1-0.3,4.5-0.8c3.3-1.2,5.9-3.6,7.3-6.8c1.5-3.2,1.6-6.7,0.4-10l-7.9-21.2c7.3-7.2,16.5-12.5,25.8-16.4   c18.5,8.3,34.9,20.1,48.7,35c0.9,0.9,2,1.4,3.2,1.4c1,0,2.1-0.4,2.9-1.1c1.7-1.6,1.9-4.3,0.2-6.1c-12.7-13.7-27.4-24.9-43.8-33.3   c15.7-5,29-6.2,29.2-6.2c1.7-0.1,3.1-1.2,3.7-2.8c0.6-1.6,0.2-3.3-1-4.5l-21-21c4.4-5.7,5.8-12.9,4.2-19.6c0.8,1,2,1.5,3.3,1.5   c0.5,0,0.9-0.1,1.4-0.2l13.7-4.6c2.3-0.8,3.5-3.2,2.7-5.5c-0.8-2.3-3.2-3.5-5.5-2.7L266,46.4c-1.6,0.6-2.7,2-2.9,3.6   c-1.1-2.9-2.8-5.5-5.1-7.8c-8.4-8.4-21.6-9-30.7-1.9l-21.2-21.2c-1.2-1.2-3-1.6-4.5-1c-1.6,0.6-2.7,2-2.8,3.7   c0,0.4-4.1,43.9-26.9,66.7l-1.5,1.5C127,91.5,85.9,110.9,57,143.6c-1.6,1.8-1.4,4.5,0.4,6.1C58.2,150.4,59.3,150.8,60.3,150.8z    M164,136.2c-7.6-7.6-7.6-20,0-27.6l10.1-10.1c0.6,0,1.1,0,1.7,0l26.8,26.8l-11,11C184.2,143.6,171.4,143.6,164,136.2z    M211.6,155.6c-0.5,1.1-1.4,1.9-2.5,2.3c-1.1,0.4-2.3,0.4-3.4-0.1c-1.1-0.5-1.9-1.4-2.3-2.5l-5.2-13.5l7-7l6.5,17.5   C212.1,153.3,212.1,154.5,211.6,155.6z M251.9,48.3c5,5,5.6,12.7,1.8,18.4l-20.2-20.2C239.1,42.7,246.9,43.3,251.9,48.3z    M206.2,31.4l62.5,62.5c-13.9,2.3-41.1,8.8-59.9,25.4L181,91.4C197.4,72.7,203.8,45.3,206.2,31.4z"></path>
</g>
</svg>